# xmcd
#
# Track frame offsets:
#	150
#	18360
#	31222
#	46012
#	61702
#	78010
#	92745
#	103617
#	118675
#	133680
#	146097
#	162945
#	179730
#	198230
#	211025
#
# Disc length: 3146 seconds
#
# Revision: 0
# Processed by: cddbd v1.5.2PL0 Copyright (c) Steve Scherf et al.
# Submitted via: audiograbber 1.83.01
#
DISCID=bf0c480f
DTITLE=Gilbert Becaud - DAS BESTE (2004)
DYEAR=2004
DGENRE=Chanson
TTITLE0=NATHALIE
TTITLE1=ÜBERALL BLÜHEN ROSEN
TTITLE2=SO VIELE ZÜGE GEH'N
TTITLE3=ALLEIN AUF DEINEM STERN
TTITLE4=WAS WIRD AUS MIR
TTITLE5=EINSAMKEIT DIE GIBT ES NICHT
TTITLE6=SCHWARZER SONNTAG
TTITLE7=EIN BISSCHEN GLÜCK UND ZÄRTLICHKEIT
TTITLE8=DIE INSEL NIRGENDWO
TTITLE9=DIESER WEG FÜHRT ZU DIR
TTITLE10=WIR ZWEI DIE NACHT UND DAS MEER
TTITLE11=ZWEI WEISSE WOLKEN
TTITLE12=DAS GROSSE NICHTS
TTITLE13=LEBEWOHL
TTITLE14=QUAND IL EST MORT LE POETE(LIVE)
EXTD=
EXTT0=
EXTT1=
EXTT2=
EXTT3=
EXTT4=
EXTT5=
EXTT6=
EXTT7=
EXTT8=
EXTT9=
EXTT10=
EXTT11=
EXTT12=
EXTT13=
EXTT14=
PLAYORDER=
